<?xml version="1.0" encoding="UTF-8"?>
<svg id="Layer_1" data-name="Layer 1" xmlns="http://www.w3.org/2000/svg" xmlns:xlink="http://www.w3.org/1999/xlink" viewBox="0 0 1000 1000">
  <defs>
    <style>
      .cls-1 {
        fill: #fff;
      }

      .cls-2 {
        fill: url(#linear-gradient);
      }
    </style>
    <linearGradient id="linear-gradient" x1="818.96" y1="1052.45" x2="181.04" y2="-52.45" gradientUnits="userSpaceOnUse">
      <stop offset="0" stop-color="#5600d4"/>
      <stop offset=".2" stop-color="#836be6"/>
      <stop offset=".36" stop-color="#a5baf3"/>
      <stop offset=".47" stop-color="#b9ecfb"/>
      <stop offset=".52" stop-color="#c2ffff"/>
      <stop offset=".62" stop-color="#c0fbff"/>
      <stop offset=".69" stop-color="#b9f1ff"/>
      <stop offset=".76" stop-color="#afe1ff"/>
      <stop offset=".82" stop-color="#a0c9ff"/>
      <stop offset=".88" stop-color="#8dabff"/>
      <stop offset=".94" stop-color="#7685ff"/>
      <stop offset=".99" stop-color="#5b5aff"/>
      <stop offset="1" stop-color="#5855ff"/>
    </linearGradient>
  </defs>
  <rect class="cls-2" width="1000" height="1000" rx="123.27" ry="123.27"/>
  <rect x="48.81" y="48.81" width="902.38" height="902.38" rx="95.01" ry="95.01"/>
  <g>
    <path class="cls-1" d="m263.68,720.43h-14.7c-25.2,0-48.01-6.36-68.41-19.09-20.4-12.53-36.61-29.24-48.61-50.14-12.2-20.7-18.3-45.39-18.3-74.06h89.71c0,18.23,4.6,32.19,13.8,41.88,9.2,9.69,19.8,14.53,31.81,14.53h14.7c12.4,0,23.2-4.84,32.4-14.53,9.2-9.69,13.8-21.74,13.8-36.18v-309.65h89.11v309.65c0,24.69-5.9,47.48-17.7,68.37-12,20.89-28.2,37.6-48.61,50.14-20.4,12.73-43.41,19.09-69.01,19.09Z"/>
    <path class="cls-1" d="m737.15,720.71h-91.21l-69.31-309.65-69.61,309.65h-91.51l100.82-447.52h120.32l100.52,447.52Z"/>
    <path class="cls-1" d="m858.97,720.43h-89.41v-447.52h89.41v447.52Z"/>
  </g>
</svg>