<svg width="500" height="500" viewBox="0 0 500 500" fill="none" xmlns="http://www.w3.org/2000/svg">
<rect x="10" y="10" width="480" height="480" rx="72" fill="white"/>
<rect x="10" y="10" width="480" height="480" rx="72" stroke="#E7EAFD" stroke-width="20"/>
<g filter="url(#filter0_d_65_2)">
<path d="M46.422 266.842L52.1393 232.865L178.411 183.206L172.285 220.369L89.4653 249.527L90.9355 247.73L90.037 252.059L89.1386 250.18L162.565 279.42L156.358 316.501L46.422 266.842ZM281.833 165.727H321.691L302.579 281.544C300.727 292.38 296.616 301.827 290.246 309.886C283.875 317.944 275.816 324.206 266.07 328.671C256.323 333.082 245.514 335.287 233.644 335.287C223.244 335.287 214.069 333.463 206.119 329.815C198.169 326.166 192.289 320.504 188.477 312.826C184.666 305.148 183.767 295.32 185.782 283.341H225.967C225.422 287.697 225.613 291.372 226.538 294.367C227.518 297.362 229.179 299.622 231.521 301.146C233.916 302.671 236.993 303.433 240.75 303.433C244.67 303.433 248.101 302.589 251.041 300.901C254.036 299.213 256.513 296.709 258.474 293.387C260.488 290.066 261.931 286.009 262.802 281.217L281.833 165.727ZM456.6 266.842L330.002 316.501L336.209 279.42L418.947 250.18L417.558 252.059L418.375 247.73L419.274 249.527L345.928 220.369L352.054 183.206L462.317 232.865L456.6 266.842Z" fill="url(#paint0_linear_65_2)"/>
</g>
<defs>
<filter id="filter0_d_65_2" x="42.422" y="165.727" width="423.895" height="177.56" filterUnits="userSpaceOnUse" color-interpolation-filters="sRGB">
<feFlood flood-opacity="0" result="BackgroundImageFix"/>
<feColorMatrix in="SourceAlpha" type="matrix" values="0 0 0 0 0 0 0 0 0 0 0 0 0 0 0 0 0 0 127 0" result="hardAlpha"/>
<feOffset dy="4"/>
<feGaussianBlur stdDeviation="2"/>
<feComposite in2="hardAlpha" operator="out"/>
<feColorMatrix type="matrix" values="0 0 0 0 0 0 0 0 0 0 0 0 0 0 0 0 0 0 0.25 0"/>
<feBlend mode="normal" in2="BackgroundImageFix" result="effect1_dropShadow_65_2"/>
<feBlend mode="normal" in="SourceGraphic" in2="effect1_dropShadow_65_2" result="shape"/>
</filter>
<linearGradient id="paint0_linear_65_2" x1="26" y1="249" x2="475" y2="249" gradientUnits="userSpaceOnUse">
<stop stop-color="#852BF5"/>
<stop offset="0.437857" stop-color="#CF13B7"/>
<stop offset="0.635713" stop-color="#D911A9"/>
<stop offset="1" stop-color="#EF377F"/>
</linearGradient>
</defs>
</svg>
