<svg width="65" height="27" viewBox="0 0 65 27" fill="none" xmlns="http://www.w3.org/2000/svg">
<path d="M0.944647 15.9325L1.81468 10.7621L21.0299 3.20525L20.0977 8.86044L7.49472 13.2976L7.71844 13.0241L7.58172 13.6829L7.445 13.397L18.6187 17.8466L17.6741 23.4893L0.944647 15.9325ZM36.7681 0.545454H42.8334L39.925 18.1697C39.6433 19.8187 39.0177 21.2563 38.0483 22.4826C37.0788 23.7089 35.8525 24.6618 34.3693 25.3413C32.8861 26.0124 31.2413 26.348 29.435 26.348C27.8523 26.348 26.4562 26.0704 25.2464 25.5153C24.0367 24.9601 23.1418 24.0984 22.5617 22.93C21.9817 21.7617 21.845 20.2661 22.1516 18.4432H28.2666C28.1838 19.1061 28.2128 19.6654 28.3536 20.1211C28.5028 20.5768 28.7555 20.9207 29.1118 21.1527C29.4764 21.3847 29.9446 21.5007 30.5163 21.5007C31.1129 21.5007 31.6349 21.3723 32.0823 21.1154C32.5381 20.8585 32.9151 20.4774 33.2134 19.9719C33.52 19.4665 33.7395 18.8492 33.8721 18.12L36.7681 0.545454ZM63.363 15.9325L44.0981 23.4893L45.0427 17.8466L57.6332 13.397L57.4219 13.6829L57.5462 13.0241L57.6829 13.2976L46.5217 8.86044L47.4539 3.20525L64.233 10.7621L63.363 15.9325Z" fill="white"/>
</svg>
