<svg width="5500" height="5500" viewBox="0 0 5500 5500" fill="none" xmlns="http://www.w3.org/2000/svg">
<rect x="125" y="125" width="5250" height="5250" rx="1375" fill="#0A0A0A"/>
<rect x="125" y="125" width="5250" height="5250" rx="1375" stroke="url(#paint0_linear_65_2)" stroke-width="250"/>
<path d="M708.22 2924.42L765.393 2584.65L2028.11 2088.06L1966.85 2459.69L1138.65 2751.27L1153.35 2733.3L1144.37 2776.59L1135.39 2757.8L1869.65 3050.2L1807.58 3421.01L708.22 2924.42ZM3062.33 1913.27H3460.91L3269.79 3071.44C3251.27 3179.8 3210.16 3274.27 3146.46 3354.86C3082.75 3435.44 3002.16 3498.06 2904.7 3542.71C2807.23 3586.82 2699.14 3608.87 2580.44 3608.87C2476.44 3608.87 2384.69 3590.63 2305.19 3554.15C2225.69 3517.66 2166.89 3461.04 2128.77 3384.26C2090.66 3307.48 2081.67 3209.2 2101.82 3089.41H2503.67C2498.22 3132.97 2500.13 3169.72 2509.38 3199.67C2519.18 3229.62 2535.79 3252.22 2559.21 3267.46C2583.16 3282.71 2613.93 3290.33 2651.5 3290.33C2690.7 3290.33 2725.01 3281.89 2754.41 3265.01C2784.36 3248.13 2809.13 3223.09 2828.74 3189.87C2848.88 3156.66 2863.31 3116.09 2872.02 3068.17L3062.33 1913.27ZM4810 2924.42L3544.02 3421.01L3606.09 3050.2L4433.47 2757.8L4419.58 2776.59L4427.75 2733.3L4436.74 2751.27L3703.28 2459.69L3764.54 2088.06L4867.17 2584.65L4810 2924.42Z" fill="white"/>
<defs>
<linearGradient id="paint0_linear_65_2" x1="250" y1="2750" x2="5250" y2="2750" gradientUnits="userSpaceOnUse">
<stop stop-color="#852BF5"/>
<stop offset="0.437857" stop-color="#CF13B7"/>
<stop offset="0.635713" stop-color="#D911A9"/>
<stop offset="1" stop-color="#EF377F"/>
</linearGradient>
</defs>
</svg>
